<?xml version="1.0" encoding="utf-8"?>
<!-- Generator: Adobe Illustrator 15.0.0, SVG Export Plug-In . SVG Version: 6.00 Build 0)  -->
<!DOCTYPE svg PUBLIC "-//W3C//DTD SVG 1.1//EN" "http://www.w3.org/Graphics/SVG/1.1/DTD/svg11.dtd">
<svg version="1.1" xmlns="http://www.w3.org/2000/svg" xmlns:xlink="http://www.w3.org/1999/xlink" x="0px" y="0px" width="232px"
	 height="232px" viewBox="0 0 232 232" enable-background="new 0 0 232 232" xml:space="preserve">
<g id="Canvas">
</g>
<g id="Name">
</g>
<g id="Symbol_1_">
	<g id="_x3C_Group_x3E__2_">
		<polygon opacity="0.8" fill="#FFFFFF" points="39.438,63.868 100.667,63.868 70.055,116 		"/>
		<polygon opacity="0.8" fill="#FFFFFF" points="70.055,116 131.289,116 100.671,168.13 		"/>
		<polygon fill="#FFFFFF" points="131.289,116 70.055,116 100.667,63.868 		"/>
		<polygon opacity="0.6" fill="#FFFFFF" points="100.667,168.13 39.438,168.13 70.055,116 		"/>
		<polygon opacity="0.5" fill="#FFFFFF" points="39.438,168.132 100.667,168.132 70.051,220.263 		"/>
		<g>
			<polygon opacity="0.8" points="100.667,63.867 161.896,63.867 131.283,115.998 			"/>
			<polygon opacity="0.7" points="161.949,63.868 100.719,63.868 131.336,11.735 			"/>
			<polygon opacity="0.8" points="192.562,115.998 131.331,115.998 161.949,63.867 			"/>
			<polygon points="131.318,115.998 192.55,115.998 161.937,168.132 			"/>
			<polygon opacity="0.7" points="161.949,168.132 100.719,168.132 131.331,115.998 			"/>
		</g>
	</g>
	<g id="_x3C_Group_x3E__1_">
		<polygon fill="#009FE3" points="333.829,139.466 361.389,139.466 347.609,162.931 		"/>
		<polygon fill="#007592" points="347.609,162.931 375.172,162.931 361.391,186.396 		"/>
		<polygon opacity="0.73" fill="#63AC96" points="361.389,139.464 388.949,139.464 375.17,162.929 		"/>
		<polygon fill="#0089B8" points="375.172,162.931 347.609,162.931 361.389,139.466 		"/>
		<polygon opacity="0.73" fill="#88C0A2" points="388.973,139.465 361.412,139.465 375.193,116 		"/>
		<polygon opacity="0.73" fill="#339B8B" points="402.752,162.929 375.191,162.929 388.973,139.464 		"/>
		<polygon opacity="0.73" fill="#008B80" points="375.186,162.929 402.746,162.929 388.967,186.396 		"/>
		<polygon opacity="0.73" fill="#007D75" points="388.973,186.396 361.412,186.396 375.191,162.929 		"/>
		<polygon fill="#006270" points="361.389,186.396 333.829,186.396 347.609,162.931 		"/>
		<polygon fill="#007592" points="333.829,186.397 361.389,186.397 347.607,209.862 		"/>
	</g>
	<text transform="matrix(1 0 0 1 326.1074 68.8511)" font-family="'Sansation-Regular'" font-size="32">protobluff</text>
</g>
<g id="Guides" display="none">
</g>
</svg>
